{"title":"Faster.2010.DvDRip.x264.Feel-Free","uid":6157266,"size":1232486923,"categoryP":"video","categoryS":"movies","magnet":"?xt=urn:btih:195e411f5cbb9c508ea1788c698cc8d540c49517&amp;dn=Faster.2010.DvDRip.x264.Feel-Free&amp;tr=udp%3A%2F%2Ftracker.openbittorrent.com%3A80&amp;tr=udp%3A%2F%2Fopen.demonii.com%3A1337&amp;tr=udp%3A%2F%2Ftracker.coppersurfer.tk%3A6969&amp;tr=udp%3A%2F%2Fexodus.desync.com%3A6969","seeders":0,"leechers":0,"uploader":"hiest","files":-1,"time":1297084181,"description":"Genre:Action | Crime | Drama\nLanguage:English\nIMDb:http://www.imdb.com/title/tt1433108/\nSource:DVD\nSubtitles:Romana\n\n\nFormat : MPEG-4\nFormat profile : Base Media\nCodec ID : isom\nFile size : 1.15 GiB\nDuration : 1h 37mn\nOverall bit rate : 1 675 Kbps\nMovie name : Faster.2010.DvDRip.x264.Feel-Free\n\n\nVideo\nFormat settings, CABAC : Yes\nFormat settings, ReFrames : 4 frames\nCodec ID : avc1\nCodec ID/Info : Advanced Video Coding\nDuration : 1h 37mn\nBit rate mode : Variable\nBit rate : 1 285 Kbps\nWidth : 720 pixels\nHeight : 304 pixels\nDisplay aspect ratio : 2.35:1\nFrame rate mode : Constant\nFrame rate : 23.976 fps\nColor space : YUV\nChroma subsampling : 4:2:0\nBit depth : 8 bits\nScan type : Progressive\nBits/(Pixel*Frame) : 0.245\nStream size : 900 MiB (77%)\nWriting library : x264\n\nAudio\nID : 2\nFormat : AAC\nFormat/Info : Advanced Audio Codec\nFormat version : Version 4\nFormat profile : LC\nCodec ID : 40\nDuration : 1h 37mn\nBit rate mode : Variable\nBit rate : 384 Kbps\nChannel(s) : 6 channels\nChannel positions : Front: L C R, Side: L R, LFE\nSampling rate : 48.0 KHz\nStream size : 269 MiB (23%)\n\n\nPlot:\nAn ex-con sets out to avenge his brother's death after they were double-crossed during a heist years ago. During his campaign, however, he's tracked by a veteran cop and an egocentric hit man.\n\n\n\n\n================================== &lt;a href=&quot;\nhttp://thepiratebay.se/user/hiest&quot; rel=&quot;nofollow&quot; target=&quot;_NEW&quot;&gt;\nhttp://thepiratebay.se/user/hiest&lt;/a&gt;\n==================================\n\n\n\n\n","torrent":{"xt":"urn:btih:195e411f5cbb9c508ea1788c698cc8d540c49517","amp;dn":"Faster.2010.DvDRip.x264.Feel-Free","amp;tr":["udp%3A%2F%2Ftracker.openbittorrent.com%3A80","udp%3A%2F%2Fopen.demonii.com%3A1337","udp%3A%2F%2Ftracker.coppersurfer.tk%3A6969","udp%3A%2F%2Fexodus.desync.com%3A6969"],"infoHash":"195e411f5cbb9c508ea1788c698cc8d540c49517","infoHashBuffer":{"type":"Buffer","data":[25,94,65,31,92,187,156,80,142,161,120,140,105,140,200,213,64,196,149,23]},"announce":[],"urlList":[]}}